<?xml version="1.0" standalone="no"?>
<!DOCTYPE svg PUBLIC "-//W3C//DTD SVG 20010904//EN"
 "http://www.w3.org/TR/2001/REC-SVG-20010904/DTD/svg10.dtd">
<svg version="1.0" xmlns="http://www.w3.org/2000/svg"
 width="512.000000pt" height="512.000000pt" viewBox="0 0 512.000000 512.000000"
 preserveAspectRatio="xMidYMid meet">

<g transform="translate(0.000000,512.000000) scale(0.100000,-0.100000)"
fill="#000000" stroke="none">
<path d="M2329 5105 c-578 -70 -1107 -422 -1400 -931 -218 -378 -302 -850
-215 -1214 123 -522 530 -1246 1215 -2165 185 -248 510 -658 590 -745 l41 -45
41 45 c23 25 112 133 198 240 890 1106 1462 2055 1607 2670 78 328 16 757
-161 1112 -103 207 -218 362 -393 529 -142 137 -265 223 -442 312 -346 174
-704 238 -1081 192z m528 -175 c232 -40 500 -151 693 -288 122 -86 327 -291
413 -412 80 -114 185 -320 227 -447 70 -213 103 -477 82 -651 -62 -497 -506
-1305 -1275 -2322 -176 -232 -428 -550 -437 -550 -9 0 -266 324 -437 550 -834
1105 -1284 1958 -1283 2435 1 636 377 1242 945 1524 344 171 698 224 1072 161z"/>
<path d="M2465 4544 c-336 -33 -619 -167 -843 -398 -332 -343 -450 -821 -317
-1281 59 -203 173 -394 330 -551 252 -253 567 -384 925 -384 359 0 672 130
925 384 351 352 472 859 318 1331 -145 447 -550 800 -1007 879 -88 16 -267 26
-331 20z m377 -197 c214 -56 377 -152 533 -311 113 -116 187 -227 246 -369
100 -243 109 -547 24 -796 -30 -89 -107 -238 -160 -309 l-39 -52 -18 65 c-42
153 -126 292 -245 406 -80 76 -194 154 -271 184 l-42 17 51 55 c182 201 170
498 -28 683 -104 98 -197 134 -338 133 -423 -4 -641 -504 -356 -815 l51 -56
-53 -22 c-140 -60 -309 -204 -392 -334 -49 -77 -90 -169 -113 -251 l-18 -65
-39 52 c-53 71 -130 220 -160 309 -86 251 -76 552 24 796 59 142 133 253 246
369 163 166 360 275 585 323 138 30 375 24 512 -12z m-165 -479 c79 -29 163
-113 188 -188 43 -126 16 -251 -74 -341 -76 -75 -146 -103 -251 -97 -93 5
-161 39 -225 110 -76 85 -100 212 -60 328 25 73 109 159 185 188 74 28 162 28
237 0z m108 -831 c116 -38 199 -90 295 -187 123 -123 188 -255 209 -424 l8
-69 -66 -48 c-119 -87 -281 -159 -444 -196 -115 -26 -357 -23 -476 6 -166 41
-294 100 -422 192 l-66 48 9 68 c18 152 82 292 186 404 104 112 215 179 363
219 108 29 293 23 404 -13z"/>
<path d="M2150 2580 l0 -80 80 0 80 0 0 80 0 80 -80 0 -80 0 0 -80z"/>
<path d="M2480 2580 l0 -80 80 0 80 0 0 80 0 80 -80 0 -80 0 0 -80z"/>
<path d="M2810 2580 l0 -80 80 0 80 0 0 80 0 80 -80 0 -80 0 0 -80z"/>
</g>
</svg>
